REM DIRINDEX 1\2,1\3,1\4,1\6,1\5\7,1\5\8
REM DIRNAME cjc114,folder01,folder02,folder03,folder04,folder05,folder06,folder07
TITLE ""
FILE "DB4500_5th_5C_01.mp3" MP3
  TRACK 01 AUDIO
    TITLE "0:"
    INDEX 01 00:00:00
  TRACK 02 AUDIO
    TITLE "6:cjc114_3218"
    INDEX 01 00:00:27
  TRACK 03 AUDIO
    TITLE "0:"
    INDEX 01 00:01:69
  TRACK 04 AUDIO
    TITLE "2:cjc114_3219"
    INDEX 01 00:02:40
  TRACK 05 AUDIO
    TITLE "0:"
    INDEX 01 00:03:53
  TRACK 06 AUDIO
    TITLE "3:cjc114_3220"
    INDEX 01 00:03:68
  TRACK 07 AUDIO
    TITLE "0:"
    INDEX 01 00:05:05
  TRACK 08 AUDIO
    TITLE "4:cjc114_3221"
    INDEX 01 00:05:20
  TRACK 09 AUDIO
    TITLE "0:"
    INDEX 01 00:08:34
  TRACK 10 AUDIO
    TITLE "2:cjc114_3222"
    INDEX 01 00:08:72
  TRACK 11 AUDIO
    TITLE "0:"
    INDEX 01 00:10:08
  TRACK 12 AUDIO
    TITLE "3:cjc114_3223"
    INDEX 01 00:10:23
  TRACK 13 AUDIO
    TITLE "0:"
    INDEX 01 00:11:52
  TRACK 14 AUDIO
    TITLE "4:cjc114_3224"
    INDEX 01 00:11:68
  TRACK 15 AUDIO
    TITLE "0:"
    INDEX 01 00:14:62
  TRACK 16 AUDIO
    TITLE "2:cjc114_3225"
    INDEX 01 00:15:25
  TRACK 17 AUDIO
    TITLE "0:"
    INDEX 01 00:16:30
  TRACK 18 AUDIO
    TITLE "3:cjc114_3226"
    INDEX 01 00:16:44
  TRACK 19 AUDIO
    TITLE "0:"
    INDEX 01 00:17:70
  TRACK 20 AUDIO
    TITLE "4:cjc114_3227"
    INDEX 01 00:18:09
  TRACK 21 AUDIO
    TITLE "0:"
    INDEX 01 00:21:45
  TRACK 22 AUDIO
    TITLE "2:cjc114_3228"
    INDEX 01 00:22:07
  TRACK 23 AUDIO
    TITLE "0:"
    INDEX 01 00:23:03
  TRACK 24 AUDIO
    TITLE "3:cjc114_3229"
    INDEX 01 00:23:16
  TRACK 25 AUDIO
    TITLE "0:"
    INDEX 01 00:24:49
  TRACK 26 AUDIO
    TITLE "4:cjc114_3230"
    INDEX 01 00:25:03
  TRACK 27 AUDIO
    TITLE "0:"
    INDEX 01 00:28:17
  TRACK 28 AUDIO
    TITLE "2:cjc114_3231"
    INDEX 01 00:28:70
  TRACK 29 AUDIO
    TITLE "0:"
    INDEX 01 00:30:12
  TRACK 30 AUDIO
    TITLE "3:cjc114_3232"
    INDEX 01 00:30:32
  TRACK 31 AUDIO
    TITLE "0:"
    INDEX 01 00:32:13
  TRACK 32 AUDIO
    TITLE "4:cjc114_3233"
    INDEX 01 00:32:33
  TRACK 33 AUDIO
    TITLE "0:"
    INDEX 01 00:36:42
  TRACK 34 AUDIO
    TITLE "2:cjc114_3234"
    INDEX 01 00:37:07
  TRACK 35 AUDIO
    TITLE "0:"
    INDEX 01 00:38:30
  TRACK 36 AUDIO
    TITLE "3:cjc114_3235"
    INDEX 01 00:38:49
  TRACK 37 AUDIO
    TITLE "0:"
    INDEX 01 00:40:07
  TRACK 38 AUDIO
    TITLE "4:cjc114_3236"
    INDEX 01 00:40:32
  TRACK 39 AUDIO
    TITLE "0:"
    INDEX 01 00:44:01
  TRACK 40 AUDIO
    TITLE "2:cjc114_3237"
    INDEX 01 00:44:40
  TRACK 41 AUDIO
    TITLE "0:"
    INDEX 01 00:45:37
  TRACK 42 AUDIO
    TITLE "3:cjc114_3238"
    INDEX 01 00:45:59
  TRACK 43 AUDIO
    TITLE "0:"
    INDEX 01 00:47:09
  TRACK 44 AUDIO
    TITLE "4:cjc114_3239"
    INDEX 01 00:47:32
  TRACK 45 AUDIO
    TITLE "0:"
    INDEX 01 00:49:27
  TRACK 46 AUDIO
    TITLE "2:cjc114_3240"
    INDEX 01 00:49:65
  TRACK 47 AUDIO
    TITLE "0:"
    INDEX 01 00:51:05
  TRACK 48 AUDIO
    TITLE "3:cjc114_3241"
    INDEX 01 00:51:22
  TRACK 49 AUDIO
    TITLE "0:"
    INDEX 01 00:52:59
  TRACK 50 AUDIO
    TITLE "4:cjc114_3242"
    INDEX 01 00:53:00
  TRACK 51 AUDIO
    TITLE "0:"
    INDEX 01 00:57:03
  TRACK 52 AUDIO
    TITLE "2:cjc114_3243"
    INDEX 01 00:57:50
  TRACK 53 AUDIO
    TITLE "0:"
    INDEX 01 00:58:69
  TRACK 54 AUDIO
    TITLE "3:cjc114_3244"
    INDEX 01 00:59:18
  TRACK 55 AUDIO
    TITLE "0:"
    INDEX 01 01:01:21
  TRACK 56 AUDIO
    TITLE "4:cjc114_3245"
    INDEX 01 01:01:42
  TRACK 57 AUDIO
    TITLE "0:"
    INDEX 01 01:04:37
  TRACK 58 AUDIO
    TITLE "2:cjc114_3246"
    INDEX 01 01:05:07
  TRACK 59 AUDIO
    TITLE "0:"
    INDEX 01 01:07:53
  TRACK 60 AUDIO
    TITLE "3:cjc114_3247"
    INDEX 01 01:07:70
  TRACK 61 AUDIO
    TITLE "0:"
    INDEX 01 01:09:34
  TRACK 62 AUDIO
    TITLE "4:cjc114_3248"
    INDEX 01 01:09:56
  TRACK 63 AUDIO
    TITLE "0:"
    INDEX 01 01:13:12
  TRACK 64 AUDIO
    TITLE "2:cjc114_3249"
    INDEX 01 01:13:55
  TRACK 65 AUDIO
    TITLE "0:"
    INDEX 01 01:14:63
  TRACK 66 AUDIO
    TITLE "3:cjc114_3250"
    INDEX 01 01:15:11
  TRACK 67 AUDIO
    TITLE "0:"
    INDEX 01 01:16:14
  TRACK 68 AUDIO
    TITLE "4:cjc114_3251"
    INDEX 01 01:16:38
  TRACK 69 AUDIO
    TITLE "0:"
    INDEX 01 01:19:36
  TRACK 70 AUDIO
    TITLE "2:cjc114_3252"
    INDEX 01 01:20:06
  TRACK 71 AUDIO
    TITLE "0:"
    INDEX 01 01:21:08
  TRACK 72 AUDIO
    TITLE "3:cjc114_3253"
    INDEX 01 01:21:31
  TRACK 73 AUDIO
    TITLE "0:"
    INDEX 01 01:22:58
  TRACK 74 AUDIO
    TITLE "4:cjc114_3254"
    INDEX 01 01:23:03
  TRACK 75 AUDIO
    TITLE "0:"
    INDEX 01 01:25:33
